<svg width="29" height="31" viewBox="0 0 29 31" fill="none" xmlns="http://www.w3.org/2000/svg">
<g clip-path="url(#clip0_53_159)">
<path d="M28.8876 18.4644C28.7137 17.9361 28.2582 17.5682 27.6692 17.4799C27.3914 17.4383 27.0733 17.456 26.6969 17.5338C26.0407 17.6696 25.554 17.7213 25.1987 17.7313C26.5396 15.4603 27.63 12.8705 28.2577 10.4327C29.2727 6.49077 28.7303 4.69497 28.0965 3.8827C26.4191 1.7327 23.9719 0.5777 21.0196 0.54236C19.4446 0.523041 18.062 0.834973 17.3407 1.05929C16.6692 0.940428 15.9472 0.874064 15.1895 0.861791C13.7693 0.839064 12.5145 1.14963 11.4423 1.78793C10.8487 1.58656 9.89601 1.3027 8.79582 1.12156C6.20825 0.695428 4.12275 1.02747 2.5973 2.1085C0.750136 3.41736 -0.106157 5.69145 0.0522106 8.86759C0.102507 9.876 0.664836 12.9442 1.55024 15.8539C2.0591 17.5264 2.60172 18.9153 3.16303 19.9824C3.95905 21.4954 4.81082 22.3864 5.76702 22.7064C6.30296 22.8855 7.27672 23.011 8.3009 22.1553C8.43072 22.313 8.60393 22.4697 8.83377 22.6153C9.1257 22.8 9.48265 22.9509 9.83914 23.0403C11.1239 23.3625 12.3273 23.2819 13.3539 22.8303C13.3603 23.0135 13.3651 23.1885 13.3692 23.3396C13.376 23.5847 13.3828 23.8251 13.3918 24.0499C13.4526 25.5696 13.5557 26.7513 13.8611 27.5782C13.8778 27.6236 13.9004 27.6929 13.9242 27.7664C14.0765 28.2344 14.3313 29.0178 14.9795 29.6313C15.6507 30.2669 16.4626 30.4618 17.2062 30.4618C17.5791 30.4618 17.9349 30.4127 18.247 30.3457C19.3594 30.1064 20.6228 29.7421 21.5368 28.4367C22.4009 27.2026 22.8209 25.3438 22.897 22.4151C22.9068 22.3322 22.9159 22.2532 22.9246 22.1778L22.9427 22.023L23.1463 22.041L23.1987 22.0445C24.3318 22.0963 25.7172 21.8553 26.5681 21.4588C27.2404 21.1459 29.3949 20.0049 28.8876 18.4644Z" fill="#252525"/>
<path d="M26.9503 18.7637C23.5813 19.4608 23.3497 18.3166 23.3497 18.3166C26.9067 13.022 28.3937 6.30116 27.1106 4.65627C23.6097 0.169337 17.5498 2.29138 17.4486 2.34638L17.4161 2.35229C16.7505 2.21366 16.0056 2.13116 15.1684 2.11741C13.6441 2.09241 12.4877 2.51831 11.6102 3.18581C11.6102 3.18581 0.799773 -1.28169 1.30263 8.80445C1.40957 10.9501 4.36847 25.04 7.89764 20.7842C9.18757 19.228 10.434 17.9122 10.434 17.9122C11.053 18.3247 11.7941 18.5351 12.5709 18.4596L12.6313 18.4082C12.6125 18.6014 12.6211 18.7904 12.6554 19.0141C11.7463 20.0331 12.0135 20.212 10.196 20.5873C8.35688 20.9675 9.43724 21.6443 10.1426 21.8214C10.9978 22.0358 12.9761 22.3397 14.3129 20.4625L14.2596 20.6767C14.6158 20.963 14.8659 22.5384 14.824 23.9667C14.7821 25.3949 14.7541 26.3755 15.0347 27.1414C15.3155 27.9073 15.5952 29.6306 17.9845 29.1171C19.9809 28.6879 21.0155 27.5757 21.1595 25.7205C21.2615 24.4016 21.4927 24.5966 21.5072 23.4174L21.6927 22.8592C21.9065 21.0714 21.7267 20.4946 22.9566 20.7629L23.2556 20.7892C24.1607 20.8305 25.3457 20.6431 26.0411 20.3189C27.5385 19.6218 28.4266 18.4579 26.9501 18.7637H26.9503Z" fill="#336791"/>
<path d="M12.243 9.76431C11.9394 9.72193 11.6645 9.76113 11.5254 9.86681C11.4472 9.92624 11.423 9.99511 11.4164 10.0425C11.3989 10.1681 11.4866 10.3069 11.5405 10.3785C11.693 10.5812 11.9157 10.7206 12.1362 10.7512C12.1681 10.7558 12.1999 10.7578 12.2316 10.7578C12.5992 10.7578 12.9334 10.4707 12.9629 10.2587C12.9997 9.99329 12.6156 9.81636 12.243 9.76443M22.3006 9.77272C22.2716 9.56465 21.9025 9.50534 21.5522 9.5542C21.2024 9.60306 20.8632 9.76147 20.8916 9.96999C20.9142 10.1322 21.2061 10.409 21.5517 10.409C21.5809 10.409 21.6103 10.407 21.64 10.4028C21.8707 10.3708 22.0399 10.2239 22.1203 10.1392C22.2427 10.0101 22.3136 9.86624 22.3006 9.77272Z" fill="white"/>
<path d="M28.0713 18.6849C27.9429 18.2952 27.5294 18.1699 26.8424 18.3122C24.8028 18.7344 24.0724 18.4419 23.8326 18.2648C25.4179 15.842 26.7221 12.9134 27.4257 10.181C27.759 8.88671 27.9431 7.68466 27.9581 6.70489C27.9748 5.62955 27.7922 4.83932 27.4156 4.35659C25.8974 2.41057 23.6692 1.36671 20.972 1.33807C19.1177 1.31716 17.551 1.79318 17.2473 1.92705C16.6077 1.7675 15.9105 1.66955 15.1514 1.65705C13.7594 1.63443 12.5561 1.96875 11.5599 2.65023C11.1272 2.48864 10.0088 2.10352 8.6412 1.8825C6.27679 1.50068 4.39791 1.79 3.05711 2.74284C1.45724 3.87989 0.718649 5.91239 0.861723 8.78375C0.909868 9.74977 1.4586 12.7216 2.32452 15.5676C3.46436 19.3135 4.70343 21.4341 6.00707 21.8703C6.15966 21.9214 6.33559 21.957 6.52964 21.957C7.00519 21.957 7.58825 21.742 8.19487 21.0105C8.93478 20.1201 9.70016 19.2513 10.4901 18.4052C11.0025 18.6811 11.5656 18.8352 12.1414 18.8507C12.1425 18.8658 12.144 18.8809 12.1453 18.8959C12.0462 19.0145 11.9492 19.1348 11.8542 19.2567C11.4552 19.7648 11.3722 19.8706 10.0879 20.1358C9.72258 20.2115 8.75233 20.412 8.73806 21.0943C8.72265 21.8398 9.88503 22.1528 10.0175 22.186C10.479 22.3019 10.9236 22.3591 11.3476 22.3591C12.3788 22.3591 13.2863 22.0191 14.0115 21.3612C13.9892 24.0188 14.0997 26.6374 14.4178 27.4352C14.6783 28.0884 15.3147 29.6847 17.325 29.6845C17.62 29.6845 17.9447 29.6501 18.3018 29.5733C20.3999 29.1222 21.311 28.1919 21.6634 26.1411C21.8521 25.0451 22.1757 22.428 22.328 21.0241C22.6492 21.1247 23.0628 21.1707 23.5099 21.1706C24.4425 21.1706 25.5185 20.9718 26.1933 20.6576C26.9514 20.3044 28.3194 19.4378 28.0713 18.6849ZM23.0749 9.19852C23.068 9.61296 23.0112 9.98921 22.9509 10.3819C22.886 10.8043 22.8189 11.241 22.802 11.7711C22.7854 12.287 22.8496 12.8234 22.9117 13.3422C23.0372 14.3899 23.166 15.4685 22.6675 16.5328C22.5846 16.3856 22.5109 16.2335 22.4466 16.0773C22.3846 15.9266 22.25 15.6845 22.0637 15.3495C21.3388 14.0455 19.6413 10.9916 20.5102 9.74546C20.7691 9.37455 21.426 8.99318 23.0749 9.19852ZM21.0762 2.17727C23.4929 2.2308 25.4047 3.13773 26.7582 4.87273C27.7963 6.20352 26.6531 12.2589 23.3439 17.4828C23.3106 17.4404 23.2771 17.3981 23.2435 17.3559L23.2016 17.3034C24.0567 15.8867 23.8895 14.485 23.7407 13.2423C23.6795 12.7323 23.6217 12.2506 23.6365 11.7981C23.6516 11.3185 23.7149 10.9072 23.776 10.5094C23.8511 10.0193 23.9276 9.51216 23.9065 8.91432C23.9223 8.85159 23.9286 8.7775 23.9203 8.68955C23.8665 8.11625 23.214 6.40046 21.8841 4.8475C21.1566 3.99807 20.0957 3.0475 18.6472 2.40637C19.2703 2.27682 20.1223 2.15602 21.0762 2.17727ZM7.55291 20.475C6.88455 21.2811 6.42304 21.1266 6.27124 21.0759C5.2823 20.745 4.13476 18.6482 3.12304 15.3232C2.24761 12.4461 1.73603 9.55307 1.69547 8.74182C1.56769 6.17614 2.18768 4.38807 3.53833 3.42716C5.73644 1.86352 9.35034 2.79943 10.8025 3.27409C10.7816 3.29477 10.7599 3.31409 10.7393 3.33512C8.3563 5.74921 8.41283 9.87375 8.41872 10.1259C8.41849 10.2232 8.42665 10.3609 8.43775 10.5503C8.47875 11.2441 8.55511 12.5352 8.3512 13.9974C8.16179 15.3561 8.57935 16.686 9.49659 17.6461C9.59072 17.7445 9.68966 17.8381 9.79304 17.9266C9.38478 18.3652 8.49745 19.3352 7.55291 20.475ZM10.0994 17.0667C9.36008 16.2928 9.02432 15.2165 9.17804 14.1133C9.39327 12.5688 9.31386 11.2235 9.27116 10.5008C9.26515 10.3997 9.25983 10.311 9.25677 10.2411C9.60488 9.93148 11.2181 9.06443 12.3686 9.32887C12.8936 9.44943 13.2135 9.80807 13.3464 10.4249C14.0347 13.6184 13.4375 14.9494 12.9577 16.0191C12.8588 16.2394 12.7653 16.4477 12.6856 16.6632L12.6237 16.8298C12.4672 17.2509 12.3215 17.6425 12.2312 18.0143C11.4453 18.012 10.6807 17.6752 10.0994 17.0666V17.0667ZM10.22 21.3735C9.99049 21.316 9.78409 21.2161 9.663 21.1333C9.76416 21.0856 9.94416 21.0206 10.2564 20.956C11.7672 20.6441 12.0006 20.4239 12.5101 19.7749C12.6269 19.626 12.7593 19.4574 12.9427 19.2519L12.9429 19.2517C13.2161 18.9449 13.341 18.9969 13.5676 19.0913C13.7512 19.1674 13.9301 19.3983 14.0026 19.6524C14.0369 19.7724 14.0754 20.0001 13.9493 20.1774C12.8849 21.6724 11.3339 21.6532 10.22 21.3735ZM18.1269 28.7544C16.2786 29.1517 15.6242 28.2057 15.1929 27.1242C14.9146 26.426 14.7778 23.2776 14.8748 19.8007C14.8761 19.7544 14.8695 19.7098 14.8568 19.6677C14.8455 19.5847 14.8282 19.5026 14.8052 19.422C14.6609 18.9161 14.3091 18.493 13.8871 18.3175C13.7195 18.2478 13.4118 18.12 13.0421 18.2149C13.1209 17.889 13.2576 17.5209 13.4059 17.1224L13.4681 16.9548C13.5381 16.7658 13.626 16.57 13.7189 16.3627C14.2211 15.2436 14.9088 13.7108 14.1624 10.248C13.8828 8.95091 12.9492 8.3175 11.5338 8.46466C10.6854 8.55273 9.90904 8.89614 9.52185 9.09307C9.43859 9.13534 9.36246 9.17625 9.29132 9.21602C9.39939 7.90921 9.80766 5.46693 11.3349 3.92171C12.2966 2.94898 13.5772 2.46852 15.1375 2.49443C18.212 2.54489 20.1835 4.12762 21.2962 5.44659C22.255 6.58307 22.7742 7.72796 22.9814 8.34546C21.4232 8.18648 20.3634 8.495 19.8263 9.26546C18.6575 10.9414 20.4656 14.1941 21.3346 15.7574C21.494 16.0439 21.6315 16.2915 21.6748 16.3967C21.9578 17.0847 22.3241 17.544 22.5916 17.8792C22.6736 17.9819 22.7531 18.0816 22.8136 18.1686C22.3417 18.3051 21.494 18.6205 21.5712 20.1967C21.5089 20.9876 21.0659 24.6906 20.8408 25.9989C20.5437 27.7273 19.9096 28.371 18.1269 28.7545V28.7544ZM25.8418 19.8981C25.3592 20.1227 24.5517 20.2913 23.7845 20.3275C22.9372 20.3673 22.5058 20.2323 22.4043 20.1492C22.3567 19.1669 22.7212 19.0643 23.1069 18.9557C23.1675 18.9386 23.2266 18.9219 23.2837 18.9019C23.3192 18.9309 23.358 18.9597 23.4006 18.9878C24.0817 19.4388 25.2964 19.4874 27.0113 19.1323L27.0301 19.1285C26.7988 19.3455 26.403 19.6366 25.8418 19.8981Z" fill="white"/>
</g>
<defs>
<clipPath id="clip0_53_159">
<rect width="29" height="30" fill="white" transform="translate(0 0.5)"/>
</clipPath>
</defs>
</svg>
