<svg width="31" height="31" viewBox="0 0 31 31" fill="none" xmlns="http://www.w3.org/2000/svg">
<g clip-path="url(#clip0_53_208)">
<path d="M30.8732 17.4681C31.9581 8.97571 25.9606 1.21154 17.4836 0.126785C9.00671 -0.958094 1.21154 5.03944 0.126785 13.5164C-0.958094 21.9933 5.03944 29.773 13.5164 30.8732C22.0088 31.9581 29.773 25.9606 30.8732 17.4681Z" fill="#FF6C37"/>
<path d="M21.0946 9.95193L14.5546 16.4918L12.7104 14.6476C19.1418 8.21629 19.7772 8.77417 21.0944 9.95193H21.0946Z" fill="white"/>
<path d="M14.5546 16.6468C14.5081 16.6468 14.4771 16.6313 14.4461 16.6003L12.5865 14.7561C12.5718 14.7421 12.5601 14.7253 12.5521 14.7067C12.5442 14.688 12.54 14.668 12.54 14.6477C12.54 14.6274 12.5442 14.6073 12.5521 14.5887C12.5601 14.5701 12.5718 14.5532 12.5865 14.5393C19.1263 7.99934 19.8082 8.61922 21.1874 9.85898C21.2184 9.88998 21.2339 9.92098 21.2339 9.96748C21.2339 10.014 21.2184 10.045 21.1874 10.076L14.6476 16.6003C14.6321 16.6313 14.5856 16.6468 14.5546 16.6468ZM12.9275 14.6476L14.5546 16.2749L20.862 9.96748C19.7153 8.94472 18.9403 8.63472 12.9275 14.6478V14.6476Z" fill="#FF6C37"/>
<path d="M16.4298 18.367L14.6476 16.5847L21.1874 10.0449C22.9387 11.8117 20.3197 14.6786 16.4298 18.367Z" fill="white"/>
<path d="M16.4298 18.5222C16.3833 18.5222 16.3523 18.5067 16.3214 18.4757L14.5391 16.6934C14.5081 16.6624 14.5081 16.6314 14.5081 16.5849C14.5081 16.5386 14.5236 16.5074 14.5546 16.4766L21.0945 9.93665C21.1085 9.92196 21.1254 9.91025 21.144 9.90226C21.1627 9.89426 21.1827 9.89014 21.203 9.89014C21.2233 9.89014 21.2434 9.89426 21.2621 9.90226C21.2807 9.91025 21.2975 9.92196 21.3115 9.93665C21.5094 10.1198 21.6657 10.3431 21.77 10.5918C21.8742 10.8404 21.924 11.1084 21.9159 11.3779C21.8849 13.0982 19.9324 15.2832 16.5539 18.4757C16.5074 18.5067 16.4609 18.5222 16.4299 18.5222H16.4298ZM14.8646 16.5849C15.8564 17.5923 16.2749 17.9952 16.4298 18.1502C19.0333 15.6707 21.5593 13.1292 21.5749 11.3779C21.5904 10.975 21.4354 10.572 21.1719 10.2622L14.8646 16.5849Z" fill="#FF6C37"/>
<path d="M12.7415 14.6941L14.0588 16.0114C14.0898 16.0424 14.0898 16.0734 14.0588 16.1044C14.0433 16.1199 14.0433 16.1199 14.0278 16.1199L11.3002 16.7088C11.1607 16.7243 11.0367 16.6313 11.0057 16.4919C10.9902 16.4144 11.0212 16.3369 11.0677 16.2904L12.6485 14.7096C12.6795 14.6786 12.726 14.6631 12.7415 14.6941Z" fill="white"/>
<path d="M11.2537 16.864C11.0212 16.864 10.8508 16.678 10.8508 16.4456C10.8508 16.3371 10.8973 16.2286 10.9748 16.1511L12.5555 14.5703C12.6485 14.4928 12.7725 14.4928 12.8655 14.5703L14.1827 15.8876C14.2757 15.9651 14.2757 16.1046 14.1827 16.1976C14.1517 16.2286 14.1207 16.2441 14.0742 16.2596L11.3467 16.8485C11.3157 16.8485 11.2847 16.864 11.2537 16.864ZM12.695 14.8648L11.1762 16.3836C11.1452 16.4146 11.1297 16.4611 11.1607 16.5076C11.1762 16.5541 11.2227 16.5695 11.2692 16.5541L13.8262 15.9961L12.695 14.8648Z" fill="#FF6C37"/>
<path d="M24.5503 6.32588C23.5586 5.36501 21.9623 5.396 21.0015 6.40338C20.0407 7.41064 20.0717 8.9914 21.079 9.95216C21.4766 10.3363 21.9902 10.5781 22.5396 10.6398C23.089 10.7015 23.6434 10.5796 24.1163 10.2932L22.3496 8.5264L24.5502 6.32588H24.5503Z" fill="white"/>
<path d="M22.8147 10.8042C21.3424 10.8042 20.1492 9.61092 20.1492 8.13866C20.1492 6.6664 21.3424 5.47314 22.8147 5.47314C23.4964 5.47314 24.1629 5.73664 24.6589 6.21702C24.6898 6.24802 24.7053 6.27902 24.7053 6.32552C24.7053 6.37202 24.6898 6.40302 24.6588 6.43402L22.5667 8.52604L24.2094 10.1688C24.2714 10.2308 24.2714 10.3238 24.2094 10.3858L24.1784 10.4168C23.7754 10.6647 23.2951 10.8043 22.8147 10.8043V10.8042ZM22.8147 5.79864C21.5129 5.79864 20.459 6.8524 20.4745 8.15416C20.4745 9.45592 21.5284 10.5098 22.8302 10.4943C23.1866 10.4943 23.5431 10.4168 23.8684 10.2463L22.2413 8.63454C22.2103 8.60354 22.1948 8.57254 22.1948 8.52604C22.1948 8.47966 22.2103 8.44854 22.2413 8.41766L24.3179 6.3409C23.8994 5.98452 23.3726 5.79864 22.8147 5.79864Z" fill="#FF6C37"/>
<path d="M24.5968 6.37231L24.5658 6.34131L22.3498 8.52632L24.1009 10.2776C24.2714 10.1691 24.4418 10.0451 24.5813 9.90558C24.8161 9.67561 25.0029 9.40133 25.1309 9.09863C25.2589 8.79593 25.3256 8.47083 25.327 8.14218C25.3285 7.81353 25.2647 7.48787 25.1393 7.18405C25.014 6.88024 24.8296 6.60433 24.5968 6.37231Z" fill="white"/>
<path d="M24.1164 10.4482C24.0699 10.4482 24.0389 10.4327 24.0079 10.4017L22.2411 8.63493C22.2103 8.60393 22.1948 8.57293 22.1948 8.52643C22.1948 8.48005 22.2103 8.44893 22.2413 8.41805L24.4418 6.21742C24.4558 6.20272 24.4726 6.19101 24.4913 6.18302C24.5099 6.17502 24.53 6.1709 24.5503 6.1709C24.5706 6.1709 24.5907 6.17502 24.6093 6.18302C24.628 6.19101 24.6448 6.20272 24.6588 6.21742L24.7053 6.24842C25.7437 7.28667 25.7437 8.96043 24.7208 10.0142C24.5658 10.1692 24.3954 10.3087 24.2094 10.4172C24.1629 10.4327 24.1319 10.4482 24.1164 10.4482ZM22.5666 8.52643L24.1319 10.0917C24.2559 10.0142 24.3799 9.90569 24.4728 9.81281C25.3562 8.92943 25.4027 7.48817 24.5503 6.5583L22.5668 8.52643H22.5666Z" fill="#FF6C37"/>
<path d="M21.3579 10.2311C21.179 10.0525 20.9366 9.95215 20.6838 9.95215C20.431 9.95215 20.1885 10.0525 20.0096 10.2311L14.1672 16.0735L15.1435 17.0499L21.3269 11.6258C21.7299 11.2848 21.7608 10.6805 21.4199 10.2776C21.3889 10.2621 21.3734 10.2466 21.3579 10.2311Z" fill="white"/>
<path d="M15.128 17.2046C15.0815 17.2046 15.0505 17.1891 15.0195 17.1581L14.0432 16.1817C14.0285 16.1677 14.0168 16.1509 14.0088 16.1322C14.0008 16.1136 13.9967 16.0935 13.9967 16.0732C13.9967 16.0529 14.0008 16.0328 14.0088 16.0142C14.0168 15.9955 14.0285 15.9787 14.0432 15.9647L19.8856 10.1223C19.9882 10.0192 20.1102 9.93733 20.2445 9.88148C20.3788 9.82563 20.5228 9.79688 20.6683 9.79688C20.8137 9.79688 20.9577 9.82563 21.0921 9.88148C21.2264 9.93733 21.3483 10.0192 21.4509 10.1223C21.554 10.2249 21.6359 10.3468 21.6917 10.4811C21.7476 10.6155 21.7763 10.7595 21.7763 10.9049C21.7763 11.0504 21.7476 11.1944 21.6917 11.3287C21.6359 11.4631 21.554 11.585 21.4509 11.6876L21.4044 11.7341L15.221 17.1581C15.2055 17.1891 15.1745 17.2046 15.128 17.2046ZM14.3841 16.0732L15.1435 16.8326L21.2184 11.5016C21.5594 11.2226 21.5904 10.7112 21.3114 10.3703C21.0325 10.0293 20.521 9.99831 20.1801 10.2773C20.1646 10.2928 20.1491 10.3083 20.1181 10.3238L14.3841 16.0733V16.0732Z" fill="#FF6C37"/>
<path d="M9.68846 22.7216C9.62658 22.7526 9.59558 22.8146 9.61096 22.8766L9.87446 23.9923C9.93646 24.1473 9.84346 24.3333 9.67296 24.3798C9.54908 24.4263 9.40958 24.3798 9.33208 24.2868L7.62732 22.5976L13.1909 17.0342L15.1126 17.0652L16.4144 18.3669C16.1044 18.6303 14.2292 20.4436 9.68846 22.7216Z" fill="white"/>
<path d="M9.56462 24.5349C9.44062 24.5349 9.31662 24.4886 9.23912 24.3956L7.54986 22.7063C7.51898 22.6753 7.50348 22.6443 7.50348 22.5979C7.50348 22.5514 7.51898 22.5204 7.54998 22.4894L13.1134 16.9259C13.1444 16.8949 13.1909 16.8794 13.2219 16.8794L15.1436 16.9104C15.19 16.9104 15.2211 16.9259 15.252 16.9569L16.5538 18.2587C16.5848 18.2897 16.6003 18.3362 16.6003 18.3827C16.6003 18.4292 16.5848 18.4602 16.5383 18.4912L16.4298 18.584C14.7871 20.0253 12.5555 21.4665 9.78149 22.8458L10.045 23.9462C10.0915 24.1476 9.99849 24.3646 9.81249 24.4729C9.71949 24.5196 9.64199 24.5351 9.56462 24.5351V24.5349ZM7.85986 22.5979L9.45612 24.1786C9.50262 24.2561 9.59562 24.2871 9.67299 24.2406C9.75049 24.1941 9.78149 24.1011 9.73499 24.0236L9.47162 22.9078C9.44062 22.7683 9.50262 22.6443 9.62662 22.5824C12.3695 21.2032 14.5856 19.7774 16.2129 18.3672L15.0661 17.2204L13.2839 17.1894L7.85986 22.5979Z" fill="#FF6C37"/>
<path d="M6.31017 23.9304L7.64281 22.5977L9.62656 24.5812L6.46505 24.3643C6.32555 24.3488 6.23255 24.2248 6.24817 24.0853C6.24817 24.0233 6.26367 23.9613 6.31005 23.9303L6.31017 23.9304Z" fill="white"/>
<path d="M9.62658 24.721L6.44956 24.5041C6.21706 24.4886 6.06206 24.2871 6.07768 24.0546C6.09318 23.9616 6.12418 23.8688 6.20168 23.8068L7.53444 22.474C7.54843 22.4593 7.56525 22.4476 7.58389 22.4397C7.60253 22.4317 7.6226 22.4276 7.64288 22.4276C7.66316 22.4276 7.68322 22.4317 7.70186 22.4397C7.7205 22.4476 7.73733 22.4593 7.75132 22.474L9.73495 24.4575C9.78145 24.5041 9.79695 24.5661 9.76595 24.628C9.73495 24.69 9.68845 24.721 9.62658 24.721ZM7.64282 22.815L6.41856 24.0393C6.37206 24.0701 6.37206 24.1476 6.41856 24.1786C6.43406 24.1941 6.44956 24.2096 6.48056 24.2096L9.22358 24.3956L7.64282 22.8149V22.815ZM12.6485 17.7474C12.5555 17.7474 12.4935 17.6699 12.4935 17.5924C12.4935 17.5459 12.509 17.5149 12.54 17.4839L14.0432 15.9806C14.0572 15.9659 14.0741 15.9542 14.0927 15.9462C14.1114 15.9382 14.1314 15.9341 14.1517 15.9341C14.172 15.9341 14.1921 15.9382 14.2108 15.9462C14.2294 15.9542 14.2462 15.9659 14.2602 15.9806L15.2365 16.957C15.283 17.0035 15.2985 17.05 15.283 17.112C15.2675 17.1585 15.221 17.205 15.159 17.2205L12.6795 17.7472H12.6485V17.7474ZM14.1517 16.3061L13.1288 17.3289L14.8026 16.9725L14.1517 16.3061Z" fill="#FF6C37"/>
<path d="M15.1125 17.0654L13.4079 17.4372C13.2839 17.4682 13.1599 17.3908 13.1289 17.2668C13.1134 17.1893 13.1289 17.1118 13.1909 17.0499L14.1363 16.1045L15.1125 17.0654Z" fill="white"/>
<path d="M13.3768 17.5919C13.3258 17.5925 13.2752 17.5828 13.2279 17.5635C13.1807 17.5442 13.1378 17.5157 13.1017 17.4796C13.0656 17.4435 13.0371 17.4006 13.0178 17.3533C12.9985 17.3061 12.9888 17.2555 12.9893 17.2044C12.9893 17.0961 13.0358 17.0031 13.0978 16.9256L14.0432 15.9802C14.0572 15.9655 14.074 15.9538 14.0927 15.9458C14.1113 15.9378 14.1314 15.9337 14.1517 15.9337C14.172 15.9337 14.1921 15.9378 14.2107 15.9458C14.2294 15.9538 14.2462 15.9655 14.2602 15.9802L15.2365 16.9566C15.283 17.0031 15.2985 17.0496 15.283 17.1116C15.2675 17.1581 15.221 17.2046 15.159 17.2201L13.4543 17.5919H13.3768ZM14.1517 16.3057L13.3148 17.1424C13.2838 17.1736 13.2838 17.2046 13.2993 17.2354C13.3148 17.2664 13.3458 17.2819 13.3923 17.2819L14.8181 16.9719L14.1517 16.3057ZM24.6123 7.85964C24.5813 7.76676 24.4728 7.72026 24.3798 7.75126C24.2869 7.78226 24.2404 7.89064 24.2714 7.98376C24.2714 7.99914 24.2869 8.01464 24.2869 8.03014C24.3799 8.21614 24.3489 8.44864 24.2249 8.61902C24.1629 8.69652 24.1784 8.80502 24.2404 8.86702C24.3179 8.92902 24.4263 8.91352 24.4883 8.83602C24.7208 8.54152 24.7673 8.16964 24.6123 7.85964Z" fill="#FF6C37"/>
</g>
<defs>
<clipPath id="clip0_53_208">
<rect width="31" height="31" fill="white"/>
</clipPath>
</defs>
</svg>
