<svg width="31" height="31" viewBox="0 0 31 31" fill="none" xmlns="http://www.w3.org/2000/svg">
<g clip-path="url(#clip0_53_229)">
<path d="M4.17858 28.0162L0 3.24855L7.72736 0.0419922L12.6616 2.97404L17.1824 0.536055L26.6019 4.15264L21.3189 31L4.17858 28.0162Z" fill="url(#paint0_linear_53_229)"/>
<path d="M31 10.498L26.999 0.61673L19.7398 0L8.53467 10.7661L11.5507 24.6417L17.1823 28.5911L31 20.3922L27.6094 14.0339L31 10.498Z" fill="url(#paint1_linear_53_229)"/>
<path d="M24.7903 9.02547L27.6093 14.0339L31 10.498L28.5103 4.34326L24.7903 9.02547Z" fill="url(#paint2_linear_53_229)"/>
<path d="M5.8125 5.8125H25.1875V25.1875H5.8125V5.8125Z" fill="#252525"/>
<path d="M8.22794 21.5254H15.4936V22.7364H8.22794V21.5254ZM15.1061 8.22449L14.0242 12.4643L12.7875 8.22449H11.5572L10.3172 12.4643L9.23859 8.22449H7.54327L9.61967 15.4934H10.9823L12.1708 11.2857L13.3461 15.4934H14.725L16.7981 8.22449H15.1061ZM17.1017 14.4859L18.0478 13.3234C18.6421 13.8722 19.4155 14.1866 20.2242 14.2081C20.8701 14.2081 21.277 13.9498 21.277 13.5203V13.5009C21.277 13.2709 21.1965 13.1049 20.9067 12.9475L20.8604 12.9233L20.8108 12.8993C20.8021 12.8952 20.7934 12.8912 20.7846 12.8872L20.7297 12.8632C20.7201 12.8591 20.7105 12.8551 20.7008 12.8511L20.6403 12.8271L20.576 12.8029C20.5648 12.7988 20.5536 12.7948 20.5423 12.7908L20.4721 12.7666L20.4354 12.7542L20.3591 12.7295L20.2783 12.7046C20.2643 12.7004 20.2503 12.6962 20.2363 12.692L20.1491 12.6666L20.0573 12.6407L19.9611 12.6145L19.86 12.5877L19.6656 12.5374L19.5271 12.5002L19.4365 12.4751L19.3476 12.4497L19.2604 12.4237L19.1748 12.3974L19.0908 12.3705L19.0084 12.343C18.9949 12.3384 18.9815 12.3338 18.968 12.3291L18.8883 12.3006L18.8104 12.2714L18.7343 12.2414L18.6599 12.2105C18.6477 12.2053 18.6356 12.2001 18.6235 12.1948L18.5519 12.1625L18.4822 12.1292C17.8062 11.7964 17.4058 11.3062 17.3926 10.3929L17.3923 10.3234C17.3923 9.01656 18.4325 8.14614 19.8965 8.12797L19.9433 8.12761C20.926 8.11021 21.8836 8.43817 22.6494 9.05434L21.8162 10.2621C21.2718 9.83626 20.6107 9.58621 19.9208 9.54526C19.3072 9.54526 18.9842 9.82619 18.9842 10.191V10.2137C18.9842 10.5046 19.1039 10.6806 19.4795 10.8466L19.5347 10.8704C19.5538 10.8783 19.5735 10.8861 19.5937 10.8939L19.6564 10.9175L19.7228 10.9412L19.793 10.965L19.867 10.9891L19.9452 11.0133L20.0274 11.0379L20.1586 11.0756L20.2515 11.1014L20.3487 11.1277L20.5569 11.1824C20.5912 11.1914 20.6253 11.2006 20.6589 11.2097L20.759 11.2375C20.7756 11.2421 20.7919 11.2469 20.8082 11.2516L20.9051 11.2802L20.9997 11.3095L21.0923 11.3394L21.1827 11.3699L21.2708 11.4014L21.3141 11.4172L21.3988 11.4499C22.3341 11.8187 22.8535 12.3499 22.8687 13.3277L22.8689 13.3912C22.8689 14.8378 21.7645 15.6516 20.192 15.6516C19.0536 15.6561 17.9535 15.2411 17.1017 14.4859Z" fill="white"/>
</g>
<defs>
<linearGradient id="paint0_linear_53_229" x1="11.6772" y1="0.645982" x2="19.548" y2="28.9865" gradientUnits="userSpaceOnUse">
<stop offset="0.28" stop-color="#07C3F2"/>
<stop offset="0.94" stop-color="#087CFA"/>
</linearGradient>
<linearGradient id="paint1_linear_53_229" x1="15.9624" y1="4.31096" x2="27.886" y2="21.7952" gradientUnits="userSpaceOnUse">
<stop offset="0.14" stop-color="#FCF84A"/>
<stop offset="0.37" stop-color="#07C3F2"/>
</linearGradient>
<linearGradient id="paint2_linear_53_229" x1="27.5484" y1="6.77154" x2="29.2533" y2="12.8098" gradientUnits="userSpaceOnUse">
<stop offset="0.28" stop-color="#07C3F2"/>
<stop offset="0.94" stop-color="#087CFA"/>
</linearGradient>
<clipPath id="clip0_53_229">
<rect width="31" height="31" fill="white"/>
</clipPath>
</defs>
</svg>
